<svg width="924" height="205" viewBox="0 0 924 205" fill="none" xmlns="http://www.w3.org/2000/svg">
<path d="M370.48 79.2438C369.667 79.737 368.699 79.9084 367.766 79.7244C366.833 79.5404 366.002 79.0144 365.437 78.2495C362.659 74.2617 358.932 71.0286 354.592 68.842C350.252 66.6554 345.435 65.5843 340.578 65.7253C321.637 65.7253 310.012 80.7116 310.012 102.115C310.012 123.518 321.85 138.789 340.791 138.789C345.713 138.907 350.585 137.766 354.943 135.475C359.302 133.183 363.003 129.818 365.698 125.696C366.236 124.921 367.046 124.377 367.967 124.171C368.888 123.965 369.853 124.112 370.67 124.584L379.667 129.792C380.158 130.041 380.59 130.393 380.933 130.824C381.276 131.255 381.522 131.755 381.655 132.29C381.787 132.825 381.803 133.382 381.701 133.923C381.599 134.464 381.381 134.977 381.063 135.427C376.665 142.02 370.665 147.387 363.625 151.027C356.585 154.667 348.737 156.46 340.815 156.238C310.533 156.238 290.006 134.268 290.006 102.234C290.006 70.2007 310.533 48.5125 340.365 48.5125C348.155 48.2963 355.879 49.9916 362.862 53.4503C369.845 56.9089 375.875 62.0256 380.424 68.353C380.737 68.779 380.959 69.2648 381.077 69.7802C381.194 70.2956 381.204 70.8297 381.107 71.3492C381.009 71.8687 380.805 72.3626 380.509 72.8002C380.212 73.2378 379.829 73.6097 379.382 73.8929L370.48 79.2438Z" fill="black"/>
<path fill-rule="evenodd" clip-rule="evenodd" d="M436.679 146.081V150.437C436.679 150.948 436.782 151.455 436.983 151.925C437.183 152.396 437.477 152.821 437.847 153.175C438.216 153.529 438.654 153.805 439.132 153.985C439.611 154.165 440.122 154.247 440.633 154.225H450.529C451.027 154.225 451.519 154.127 451.979 153.937C452.439 153.746 452.856 153.467 453.208 153.115C453.56 152.764 453.839 152.346 454.029 151.886C454.22 151.427 454.318 150.934 454.318 150.437V100.954C454.318 83.0315 441.58 75.6211 423.539 75.6211C413.398 75.6445 403.417 78.148 394.465 82.9133C393.61 83.3894 392.971 84.176 392.68 85.1103C392.389 86.0447 392.469 87.0551 392.902 87.9323L396.146 94.7036C396.368 95.1581 396.681 95.5628 397.064 95.8931C397.448 96.2233 397.894 96.4724 398.377 96.6252C398.859 96.7779 399.368 96.8312 399.871 96.7818C400.375 96.7324 400.863 96.5813 401.307 96.3377C407.699 93.0163 414.774 91.225 421.976 91.105C428.251 91.105 435.661 92.8345 435.661 99.2499C435.661 105.961 427.554 107.106 417.552 108.517C416.746 108.631 415.94 108.746 415.134 108.862C404.812 110.306 388.072 113.526 388.072 132.301C388.072 147.383 398.987 155.977 414.708 155.977C425.339 155.977 431.944 152.189 436.679 146.081ZM421.163 120.565C427.142 119.515 432.564 118.564 435.661 116.226V125.034C435.661 136.539 427.375 141.488 418.496 141.488C411.346 141.488 406.398 138.291 406.398 131.449C406.398 124.015 412.08 122.192 418.922 120.961C419.675 120.825 420.423 120.694 421.163 120.565Z" fill="black"/>
<path d="M470.583 134.623C471.221 133.88 472.123 133.413 473.099 133.32C474.075 133.227 475.049 133.516 475.816 134.126C482.146 138.907 489.904 141.409 497.834 141.229C506.002 141.229 512.039 138.601 512.039 132.209C512.039 126.384 506.5 125.224 493.099 122.88C478.893 120.512 465.303 115.777 465.303 99.5834C465.303 82.7019 479.864 75.5766 496.461 75.5766C506.868 75.4224 517.028 78.7558 525.322 85.0458C525.726 85.3626 526.062 85.7586 526.309 86.2095C526.556 86.6604 526.708 87.1568 526.757 87.6685C526.806 88.1801 526.75 88.6964 526.593 89.1857C526.435 89.6751 526.18 90.1273 525.843 90.5149L521.107 96.0789C520.48 96.8251 519.59 97.3024 518.621 97.4126C517.652 97.5228 516.678 97.2574 515.899 96.6712C510.064 92.4035 503.003 90.1437 495.774 90.2311C488.79 90.2311 482.682 92.2678 482.682 97.7837C482.682 103.916 491.252 105.076 499.846 106.544C518.195 109.74 529.844 114.972 529.844 130.22C529.844 146.225 517.035 156.121 496.698 156.121C485.582 156.461 474.697 152.911 465.919 146.082C465.525 145.76 465.2 145.362 464.961 144.913C464.723 144.463 464.576 143.971 464.53 143.464C464.483 142.957 464.538 142.446 464.691 141.961C464.845 141.476 465.093 141.026 465.422 140.637L470.583 134.623ZM541.09 150.438V54.0774C541.09 53.5799 541.188 53.0873 541.378 52.6277C541.568 52.1681 541.847 51.7505 542.199 51.3987C542.551 51.0469 542.968 50.7678 543.428 50.5774C543.888 50.3871 544.38 50.2891 544.878 50.2891H555.793C557.885 50.2891 559.581 51.9852 559.581 54.0774V86.987C562.298 83.3607 565.844 80.437 569.921 78.46C573.999 76.4829 578.49 75.5099 583.02 75.622C599.167 75.622 608.637 87.1286 608.637 103.56V150.438C608.637 150.936 608.539 151.428 608.349 151.888C608.158 152.348 607.879 152.765 607.528 153.117C607.176 153.469 606.758 153.748 606.299 153.938C605.839 154.129 605.347 154.227 604.849 154.227H593.934C592.929 154.227 591.966 153.828 591.255 153.117C590.545 152.407 590.146 151.443 590.146 150.438V107.822C590.146 99.6535 587.518 92.2431 577.053 92.2431C567.133 92.2431 559.581 99.2281 559.581 110.876V150.462C559.581 151.466 559.182 152.43 558.471 153.14C557.761 153.851 556.797 154.25 555.793 154.25H544.878C544.377 154.253 543.881 154.156 543.419 153.966C542.956 153.775 542.537 153.494 542.184 153.139C541.831 152.784 541.553 152.362 541.365 151.899C541.177 151.435 541.084 150.939 541.09 150.438Z" fill="black"/>
<path fill-rule="evenodd" clip-rule="evenodd" d="M720.887 128.466L728.747 151.669C728.984 152.424 729.452 153.086 730.084 153.561C730.717 154.037 731.482 154.302 732.273 154.321H745.796C746.406 154.323 747.008 154.178 747.55 153.897C748.092 153.617 748.558 153.209 748.908 152.709C749.26 152.21 749.486 151.632 749.566 151.026C749.646 150.42 749.578 149.804 749.368 149.23L713.736 52.8692C713.462 52.1416 712.974 51.5143 712.336 51.0703C711.698 50.6264 710.94 50.3867 710.163 50.3831H692.667C691.905 50.3741 691.159 50.5954 690.525 51.0179C689.891 51.4404 689.399 52.0445 689.114 52.751L653.338 149.135C653.129 149.707 653.061 150.321 653.139 150.925C653.218 151.529 653.44 152.105 653.789 152.605C654.137 153.104 654.601 153.512 655.141 153.795C655.68 154.077 656.28 154.225 656.889 154.226H669.695C670.485 154.228 671.255 153.983 671.897 153.524C672.539 153.065 673.021 152.416 673.275 151.669L681.154 128.466H720.887ZM685.942 112.296L701.235 67.1698L715.939 112.296H685.942ZM776.808 87.1284V81.1618C776.834 80.6485 776.756 80.1351 776.577 79.6533C776.398 79.1714 776.122 78.7315 775.766 78.3605C775.412 77.9886 774.986 77.6927 774.514 77.4907C774.042 77.2886 773.534 77.1847 773.021 77.1852H762.103C760.013 77.1852 758.317 78.8813 758.317 80.9728V175.676C758.317 177.768 760.013 179.465 762.103 179.465H773.021C775.111 179.465 776.808 177.768 776.808 175.676V144.259C779.479 148.011 783.042 151.041 787.176 153.074C791.309 155.108 795.884 156.081 800.487 155.907C821.435 155.907 834.978 138.364 834.978 115.658C834.978 92.9535 821.435 75.6219 800.487 75.6219C795.897 75.4361 791.332 76.3897 787.2 78.3975C783.068 80.4053 779.498 83.4049 776.808 87.1284ZM815.539 115.658C815.539 128.894 809.409 139.832 796.601 139.832C783.559 139.832 776.808 128.916 776.808 115.658C776.808 102.399 783.913 91.7689 796.601 91.7689C809.288 91.7689 815.539 102.423 815.539 115.658ZM864.881 87.1278V81.1611C864.911 80.6475 864.835 80.1332 864.658 79.65C864.481 79.1669 864.207 78.725 863.853 78.3518C863.497 77.9791 863.069 77.6832 862.595 77.4824C862.12 77.2815 861.61 77.1799 861.095 77.1838H850.177C849.172 77.1842 848.209 77.5834 847.499 78.2937C846.789 79.004 846.39 79.9672 846.39 80.9715V175.676C846.39 177.768 848.087 179.463 850.177 179.463H861.095C863.185 179.463 864.881 177.768 864.881 175.676V144.257C867.556 148.007 871.12 151.034 875.253 153.067C879.385 155.1 883.958 156.075 888.561 155.906C909.536 155.906 923.078 138.362 923.078 115.657C923.078 92.9522 909.536 75.6212 888.561 75.6212C883.971 75.4394 879.408 76.3948 875.277 78.4023C871.146 80.4097 867.575 83.4071 864.881 87.1278ZM903.639 115.657C903.639 128.892 897.509 139.83 884.701 139.83C871.726 139.83 864.881 128.916 864.881 115.657C864.881 102.399 872.007 91.7682 884.701 91.7682C897.389 91.7682 903.639 102.422 903.639 115.657Z" fill="black"/>
<path fill-rule="evenodd" clip-rule="evenodd" d="M133.248 0C153.894 0 164.051 0 175.202 3.50385C181.186 5.67095 186.621 9.1271 191.122 13.6276C195.622 18.1281 199.078 23.563 201.245 29.5473C204.749 40.6045 204.749 50.8563 204.749 71.4066V133.248C204.749 153.775 204.749 164.027 201.245 175.107C199.078 181.091 195.622 186.526 191.122 191.027C186.621 195.527 181.186 198.983 175.202 201.151C164.145 204.654 153.894 204.654 133.343 204.654H71.3118C50.7848 204.654 40.5337 204.654 29.4525 201.151C23.4681 198.983 18.0333 195.527 13.5328 191.027C9.03228 186.526 5.57613 181.091 3.40903 175.107C0 164.05 0 153.893 0 133.248V71.3124C0 50.7848 0 40.5344 3.50385 29.4525C5.67087 23.4681 9.12699 18.0332 13.6275 13.5327C18.128 9.03217 23.5629 5.57605 29.5473 3.40903C40.5097 0 50.7848 0 71.3124 0H133.248Z" fill="#00D54B"/>
<path d="M107.49 67.0763C117.548 67.0918 127.276 70.6644 134.954 77.1618C135.746 77.8803 136.784 78.2683 137.853 78.2463C138.923 78.2243 139.944 77.7941 140.706 77.0437L148.614 69.1124C149.011 68.719 149.322 68.2477 149.527 67.7283C149.733 67.2088 149.829 66.6524 149.809 66.0941C149.789 65.5358 149.653 64.9877 149.411 64.4843C149.169 63.9809 148.825 63.5331 148.401 63.1691C142.191 57.8861 135.009 53.8653 127.259 51.332L129.627 39.6592C129.749 39.0594 129.737 38.4397 129.59 37.8452C129.444 37.2507 129.166 36.6964 128.779 36.2225C128.391 35.7486 127.902 35.3671 127.349 35.1056C126.795 34.8441 126.19 34.7093 125.578 34.711H110.354C109.411 34.71 108.496 35.0311 107.759 35.6209C107.023 36.2108 106.51 37.0342 106.306 37.955L104.175 48.3958C83.9083 49.3908 66.7195 59.4289 66.7195 80.0033C66.7195 97.7836 80.9253 105.431 95.9357 110.782C110.141 116.061 117.67 118.027 117.67 125.461C117.67 132.895 110.165 137.583 99.1083 137.583C88.3785 137.754 78.0118 133.698 70.2474 126.291C69.4769 125.533 68.4396 125.108 67.3589 125.108C66.2783 125.108 65.2409 125.533 64.4705 126.291L55.9943 134.576C55.5983 134.958 55.2833 135.416 55.0682 135.922C54.8531 136.429 54.7422 136.973 54.7422 137.523C54.7422 138.074 54.8531 138.618 55.0682 139.125C55.2833 139.631 55.5983 140.089 55.9943 140.471C62.9004 146.939 71.3296 151.557 80.4986 153.895L78.1313 164.715C78.0061 165.32 78.0152 165.944 78.158 166.545C78.3009 167.146 78.5739 167.707 78.9579 168.191C79.3418 168.674 79.8273 169.067 80.3799 169.342C80.9325 169.617 81.5389 169.768 82.156 169.783H97.4268C98.3775 169.788 99.301 169.466 100.043 168.871C100.784 168.276 101.299 167.444 101.5 166.515L103.701 156.263C127.993 154.771 142.837 141.703 142.837 122.572C142.837 104.958 128.04 97.5239 110.07 91.4624C99.7948 87.6033 90.916 85.0697 90.916 77.4463C90.916 69.8229 99.2025 67.0763 107.49 67.0763Z" fill="white"/>
</svg>
